<svg width="58" height="58" viewBox="0 0 58 58" fill="none" xmlns="http://www.w3.org/2000/svg">
<circle cx="29" cy="29" r="28" fill="white" stroke="#5CB900" stroke-width="2"/>
<path d="M41.2922 35.1883L39.5206 29.9449L36.1554 29.1149L32.8031 22.5H29.3828L26.4898 26.7813L24.4706 24.125H19.5004L15.6968 29.7541L18.0737 34.4443L15 36.7188V42H43V38.5584L41.2922 35.1883ZM41.3529 40.375H23.7442L25.3913 37.125H27.3529V35.5H24.3734L21.9028 40.375H16.6471V37.5312L20.1616 34.9307L17.5974 29.8708L20.3819 25.75H23.6471L26.5689 29.5937L30.2642 24.125H31.7851L34.6675 29.8125L33.2046 32.6992L34.6777 33.4258L36.0294 30.7588L38.2441 31.3051L39.7666 35.8117L41.3529 38.942V40.375Z" fill="black"/>
<path d="M41.123 17.625H36.4118V22.6786L42.4292 21.4912L41.123 17.625ZM38.0588 20.6964V19.25H39.9358L40.2766 20.2588L38.0588 20.6964Z" fill="black"/>
<path d="M23.0053 16H18.2941V21.0536L24.3116 19.8662L23.0053 16ZM19.9412 19.0714V17.625H21.8182L22.159 18.6338L19.9412 19.0714Z" fill="black"/>
<path d="M25.7511 17.8852L27.3142 17.3717L28.1371 19.81L26.5741 20.3235L25.7511 17.8852Z" fill="black"/>
<path d="M31.5104 19.8L32.3333 17.3617L33.8964 17.8752L33.0734 20.3135L31.5104 19.8Z" fill="black"/>
</svg>
